<?xml version="1.0" encoding="iso-8859-1"?>
<!-- Generator: Adobe Illustrator 19.0.0, SVG Export Plug-In . SVG Version: 6.00 Build 0)  -->
<svg version="1.1" id="Capa_1" xmlns="http://www.w3.org/2000/svg" xmlns:xlink="http://www.w3.org/1999/xlink" x="0px" y="0px"
	 viewBox="0 0 436.907 436.907" style="enable-background:new 0 0 436.907 436.907;" xml:space="preserve">
<circle style="fill:#E05B49;" cx="218.454" cy="218.45" r="218.45"/>
<path style="opacity:0.1;enable-background:new    ;" d="M218.457,436.907c97.894,0,180.74-64.395,208.511-153.134L322.471,179.276
	l-107.179-71.1l-106.086,71.1l29.355,29.355v92.535h-29.355v13.551H90.467v13.995L197.65,435.895
	C204.502,436.543,211.436,436.907,218.457,436.907z"/>
<rect x="138.554" y="179.27" style="fill:#2D93BA;" width="153.46" height="121.9"/>
<polygon style="fill:#27A2DB;" points="322.479,179.28 215.284,108.192 109.217,179.28 "/>
<polygon style="fill:#64798A;" points="291.449,179.28 214.881,128.503 139.119,179.28 "/>
<path style="fill:#D5D6DB;" d="M237.287,301.181H193.28v-34.146c0-12.152,9.851-22.003,22.003-22.003l0,0
	c12.152,0,22.003,9.851,22.003,22.003L237.287,301.181L237.287,301.181z"/>
<rect x="109.214" y="301.19" style="fill:#2D93BA;" width="216.92" height="13.995"/>
<rect x="109.214" y="307.44" style="fill:#27A2DB;" width="216.92" height="7.728"/>
<rect x="90.454" y="314.71" style="fill:#2D93BA;" width="256" height="13.995"/>
<rect x="90.454" y="320.99" style="fill:#27A2DB;" width="256" height="7.728"/>
<rect x="147.594" y="179.27" style="fill:#D5D6DB;" width="31.03" height="121.9"/>
<g>
	<rect x="167.764" y="179.27" style="fill:#64798A;" width="4.233" height="121.9"/>
	<rect x="154.184" y="179.27" style="fill:#64798A;" width="4.233" height="121.9"/>
</g>
<rect x="251.464" y="179.27" style="fill:#D5D6DB;" width="31.03" height="121.9"/>
<g>
	<rect x="271.634" y="179.27" style="fill:#64798A;" width="4.233" height="121.9"/>
	<rect x="258.083" y="179.27" style="fill:#64798A;" width="4.233" height="121.9"/>
</g>
<g>
</g>
<g>
</g>
<g>
</g>
<g>
</g>
<g>
</g>
<g>
</g>
<g>
</g>
<g>
</g>
<g>
</g>
<g>
</g>
<g>
</g>
<g>
</g>
<g>
</g>
<g>
</g>
<g>
</g>
</svg>
